<svg xmlns="http://www.w3.org/2000/svg"  version="1.1" xmlns:xlink="http://www.w3.org/1999/xlink" viewBox="0 0 9.387602811467765 5.912247092906266"><g transform="matrix(1,0,0,1,0.6175074604213826,4.037739632484882)"><rect width="9.387602811467765" height="9.387602811467765" x="-0.6175074604213826" y="-5.775417491765632" fill="none"></rect><g clip-path="url(#SvgjsClipPath1002)"><g clip-path="url(#SvgjsClipPath1000253399a6-4cff-4ad0-aafd-3a04900d90a3)"><path d=" M 4.429194772233358 -2.498804191253244 C 4.386016210049853 -2.586841538671447 4.321311771418037 -2.6665411754771235 4.237649344397281 -2.7287411306930096 C 4.123933116385363 -2.813418032008826 3.9896737838984735 -2.8547895618542545 3.8577604232189113 -2.854662752567372 C 3.760561104823444 -2.854662752567372 3.664154344470994 -2.8325345320063686 3.5760852947310697 -2.7892925651794225 C 3.4880479473128663 -2.7461140029959177 3.408316608185469 -2.6814095643641016 3.3461483552913043 -2.5977471373433456 C 3.261471453975488 -2.484030909331428 3.2200999241300594 -2.349771576844539 3.2202267334169417 -2.2178582161649762 C 3.2202267334169417 -2.1206588977695096 3.242354953977945 -2.0242521374170583 3.285596920804891 -1.9361830876771342 C 3.3287754829883953 -1.848145740258931 3.3934799216202114 -1.7684144011315341 3.477142348640968 -1.7062461482373688 C 3.4924228677103137 -1.6948650147396607 3.5081472192837486 -1.6844032485718512 3.5241251894309484 -1.6745755288384545 C 3.4918839282410623 -1.506965353901457 3.3638382508114186 -1.3379919791304724 3.2492977624347636 -1.2278264111512658 C 3.1045132591366236 -1.0820591358797862 2.919054677070909 -0.9607977552983571 2.741585080078794 -0.8564971168374682 L 2.9161697657943315 -0.9139417237952592 C 3.247680944027011 -1.036756518140999 3.58156979638874 -1.211150989926212 3.7643970857516416 -1.5322321043128033 C 3.77333714047686 -1.549192846433343 3.781706553411108 -1.5666291233796923 3.789758943128149 -1.584287316578086 C 3.8121724845846376 -1.5819096424490382 3.834617728362848 -1.580292824041286 3.8569995674976165 -1.580292824041286 C 3.954198885893083 -1.580292824041286 4.0506056462455335 -1.602421044602289 4.138674695985458 -1.6456630114292352 C 4.226712043403661 -1.6888415736127402 4.306443382531058 -1.7535460122445563 4.368611635425223 -1.837208439265312 C 4.45328853674104 -1.9509246672772298 4.494660066586468 -2.085183999764119 4.494533257299586 -2.217097360443681 C 4.494564959621307 -2.314328381160869 4.472468441382024 -2.41073514151332 4.429194772233358 -2.498804191253244 Z M 4.101582979572316 -2.0358868894885314 C 4.07137066697255 -1.9953396200078393 4.033930225020481 -1.9651273074080742 3.99195635106236 -1.94445739364622 C 3.95001417942596 -1.9238508845278073 3.903601980426951 -1.9131672021079533 3.8570312698193376 -1.9131672021079533 C 3.7935949240563467 -1.913294011394836 3.73082432704949 -1.93247391603582 3.6757890965424673 -1.9733382087337188 L 3.6757890965424673 -1.9733382087337188 C 3.635241827061775 -2.0035505213334837 3.6049978121402892 -2.040990963285554 3.5843278983784357 -2.0829648372436744 C 3.5637213892600226 -2.1249070088800748 3.553037706840169 -2.171319207879084 3.553037706840169 -2.217889918486697 C 3.5531645161270515 -2.281326264249688 3.5723444207680353 -2.3440651589348245 3.613208713465934 -2.3991320917635672 C 3.6434210260656994 -2.4396793612442598 3.680861468017769 -2.4699233761657453 3.7228353419758897 -2.4905932899275998 C 3.7647775136122896 -2.511199799046012 3.8111897126112995 -2.521883481465866 3.857760423218912 -2.521883481465866 C 3.9211650666601825 -2.5217566721789835 3.9839356636670393 -2.5025767675379997 4.0390025964957825 -2.461712474840101 C 4.079549865976475 -2.431500162240336 4.10976217857624 -2.394059720288266 4.130463794659814 -2.3520858463301453 C 4.151070303778227 -2.3101436746937454 4.1617539861980815 -2.2637314756947355 4.1617539861980815 -2.2171607650871223 C 4.161627176911199 -2.153724419324132 4.142447272270214 -2.0909538223172746 4.101582979572316 -2.0358868894885314 Z" fill="#ffffff" transform="matrix(1,0,0,1,0,0)" fill-rule="nonzero"></path></g><g clip-path="url(#SvgjsClipPath1000253399a6-4cff-4ad0-aafd-3a04900d90a3)"><path d=" M 1.3615830155795527 -1.4861369285309998 C 1.3418007668258765 -1.5149226366533364 1.3206553182382128 -1.5426938704806126 1.2971004931997814 -1.568341048752606 C 1.1749197452884539 -1.7018395255182002 1.0024591151281996 -1.791937523848245 0.807870264406942 -1.807820387030283 C 0.7871686483233673 -1.8095323124031972 0.7665621392049545 -1.810356572767934 0.746114141695145 -1.810356572767934 C 0.5536810488508904 -1.8103882750896545 0.37532378685059803 -1.7362999492285305 0.2419838216936071 -1.6138972850651587 C 0.1085170472497336 -1.4917165371538315 0.01841904891968894 -1.3192559069935772 0.0025361857376508005 -1.1246670562723193 C 0.0008242603647365101 -1.1039971425104658 0 -1.083390633392053 0 -1.0629109335605222 C -0.000031702321720635005 -0.8704778407162674 0.07405662353940337 -0.6921205787159752 0.19645928770277513 -0.558780613558985 C 0.31864003561410237 -0.42528213679339055 0.49110066577435685 -0.33518413846334605 0.6856895164956145 -0.31930127528130825 C 0.7063911325791892 -0.3176210522301144 0.7269659393758813 -0.31676508954365756 0.7474139368856908 -0.31676508954365756 C 0.9398470297299454 -0.31673338722193645 1.118204291730238 -0.39082171308306046 1.2515442568872286 -0.5132243772464329 C 1.3850427336528226 -0.6354051251577593 1.475140731982867 -0.807865755318014 1.4910235951649056 -1.0024546060392718 L 1.4910235951649056 -1.0025180106827132 C 1.4927038182160992 -1.0231562221228465 1.4935597809025563 -1.043731028919539 1.4935597809025563 -1.0642107287510694 C 1.4935597809025563 -1.1105278207849167 1.489058051218226 -1.155957247810587 1.480847149892582 -1.2001819866108727 C 1.6396440793912426 -1.342588815779965 1.8509400536592748 -1.4443849708249241 2.064518595091193 -1.4001602320246382 C 2.339853259234908 -1.3384358116345618 2.5225537393109274 -1.092140474186949 2.658429890205569 -0.8564971168374687 C 2.61154215638075 -0.9937998722095385 2.554351167996724 -1.1303100695385933 2.468850006316172 -1.2546148730052034 C 2.1989998438301264 -1.667664422703356 1.7482245312844176 -1.6897292386209177 1.3615830155795527 -1.4861369285309998 Z M 0.7474456392074116 -0.6496077652886041 C 0.7360645057097036 -0.6496077652886041 0.7245565629251131 -0.6500833001144133 0.7129218108536399 -0.6510343697660326 C 0.6042462519953031 -0.6600378291346929 0.5102488680936204 -0.7093349394102799 0.44180355549876943 -0.7837402884886107 C 0.37358015915596293 -0.8583041491755443 0.33287437806666764 -0.9563594302574683 0.33284267574494697 -1.0629426358822434 C 0.33284267574494697 -1.0743237693799514 0.3333182105707565 -1.0858317121645422 0.3342692802223755 -1.097403059592574 C 0.3432727395910359 -1.2061420230943516 0.3925698498666233 -1.3001394069960348 0.4669751989449537 -1.3685847195908853 C 0.5415390596318872 -1.4368081159336918 0.6395943407138113 -1.4775138970229873 0.7461775463385861 -1.4775455993447077 C 0.7575903821580148 -1.4775455993447077 0.7690666226208847 -1.4770700645188986 0.7806379700489164 -1.4761189948672793 C 0.8893769335506945 -1.4671155354986187 0.9833743174523772 -1.4178184252230315 1.0518196300472282 -1.3434130761447007 C 1.1200430263900347 -1.2688492154577675 1.1607488074793302 -1.1707939343758431 1.1607805098010509 -1.064210728751068 C 1.1607805098010509 -1.052861297575081 1.1603049749752414 -1.0413216524687696 1.1593539053236224 -1.0296869003972966 C 1.1503187436332412 -0.9210113415389602 1.1010533356793746 -0.8270139576372775 1.026647986601044 -0.758568645042426 C 0.9520841259141104 -0.6903452486996198 0.8539971425104658 -0.6496394676103243 0.7474456392074116 -0.6496077652886041 Z" fill="#00ffff" transform="matrix(1,0,0,1,0,0)" fill-rule="nonzero"></path></g><g clip-path="url(#SvgjsClipPath1000253399a6-4cff-4ad0-aafd-3a04900d90a3)"><path d=" M 2.2529888977203676 -2.153470800750367 C 2.158579383636317 -2.21601948150518 2.0538349126713387 -2.264207010520545 1.943859558622456 -2.292865909355999 C 1.940721028772113 -2.322570984808234 1.935331634079605 -2.3523711672256304 1.9269622211453574 -2.381854326425821 C 1.8942771274513828 -2.4973775867758152 1.8245003173442649 -2.5941330726671934 1.7348778538400296 -2.660739650602247 C 1.6452553903357945 -2.727473037824184 1.5352166316434703 -2.7653573122803428 1.4198518829020796 -2.7653890146020634 C 1.3721081863908033 -2.7653890146020634 1.3235719318365111 -2.758858336327613 1.2757965330035144 -2.745289742631181 C 1.160304974975241 -2.7126363512589267 1.0635177867621424 -2.6428278388300885 0.9969112088270882 -2.5532053753258537 C 0.9301778216051514 -2.4635829118216184 0.8922935471489927 -2.3535441531292944 0.892261844827272 -2.2381794043879033 C 0.892261844827272 -2.190435707876627 0.8988242254234434 -2.141899453322335 0.9123611167981546 -2.0941240544893382 C 0.9450462104921292 -1.9786324964610646 1.0148230205992468 -1.881845308247966 1.1044454841034819 -1.815238730312912 C 1.1940679476077172 -1.7485053430909754 1.3041067063000413 -1.7106210686348162 1.419471455041432 -1.7105893663130958 C 1.4672151515527083 -1.7105893663130958 1.5157514061070005 -1.7171200445875463 1.5634951026182768 -1.7306886382839786 L 1.5634951026182768 -1.7306886382839786 C 1.6789866606465502 -1.763373731977953 1.7757738488596486 -1.8331505420850707 1.842380426794703 -1.9227730055893062 C 1.8588022294459916 -1.9448061191851473 1.8734169997592043 -1.968107325649814 1.8861930354126206 -1.9923913040878203 C 2.2547642277367235 -1.9783471755655793 2.513455172977105 -1.6791723654879467 2.607801282417715 -1.32137996254886 C 2.6471438636730227 -1.1834114584206565 2.6680039913652007 -1.0380563133315448 2.678275543602686 -0.8914330753736075 C 2.7390171920194235 -1.3441422295442758 2.66645057760089 -1.87956274108408 2.2529888977203676 -2.153470800750367 Z M 1.5754785802286773 -2.1216099674211284 C 1.5505288530345374 -2.0883225296144614 1.5160367270024864 -2.0632776954551604 1.472731355532099 -2.0509137899841123 C 1.4546610321513371 -2.0458097161870903 1.436939434309502 -2.043463744379763 1.4195031573631527 -2.0434320420580425 C 1.377529283405032 -2.043400339736322 1.3366015860636922 -2.057381063615122 1.3033141482570256 -2.0821722792006585 C 1.2700267104503589 -2.107122006394798 1.2449818762910574 -2.1416141324268496 1.2326179708200096 -2.1849195038972367 C 1.227513897022987 -2.2029898272779986 1.2251679252156602 -2.2207114251198337 1.2251362228939395 -2.2381477020661826 C 1.225104520572219 -2.280121576024304 1.2390535421292983 -2.3210492733656434 1.2638764600365557 -2.3543367111723104 C 1.2888261872306954 -2.387624148978977 1.3233183132627462 -2.4126689831382784 1.3666236847331337 -2.4250328886093264 C 1.3846940081138956 -2.4301369624063485 1.4024156059557307 -2.4324829342136756 1.4198518829020799 -2.4325146365353962 C 1.4618257568602007 -2.432546338857117 1.5027534542015402 -2.4185656149783172 1.536040892008207 -2.39377439939278 C 1.569328329814874 -2.3688246721986403 1.5943731639741754 -2.3343325461665896 1.6067370694452232 -2.2909954723744814 C 1.6118411432422455 -2.27295685131544 1.6141871150495726 -2.2552035511518844 1.614218817371293 -2.2377672742055355 C 1.614250519693014 -2.195825102569135 1.6003014981359345 -2.1548974052277954 1.5754785802286773 -2.1216099674211284 Z" fill="#02dbee" transform="matrix(1,0,0,1,0,0)" fill-rule="nonzero"></path></g><g clip-path="url(#SvgjsClipPath1000253399a6-4cff-4ad0-aafd-3a04900d90a3)"><path d=" M 2.7277628678085977 -0.8914647776953286 L 2.831904994660884 -1.065478821619894 C 3.0188852881691886 -1.404598557065527 3.1902680393909417 -1.7835681109139976 3.118906113197792 -2.1838733272804554 C 3.112185220993018 -2.223469527109529 3.0984581156879827 -2.2646508430246337 3.08533335449564 -2.302566819802513 C 3.075061802258154 -2.326311858771269 3.0648853569858296 -2.3488522095146402 3.0540431629573725 -2.370378085962951 C 3.0581644647810555 -2.3748798156472817 3.0626344921436655 -2.3790962244361262 3.066597282358744 -2.3837247634073386 C 3.162306591633342 -2.4944609731775165 3.2192122591218815 -2.6387382393281267 3.2192122591218815 -2.7929383321772954 C 3.2192122591218815 -2.8216606356561904 3.2172467151752024 -2.850668260030572 3.213188817994961 -2.8797709913701146 C 3.1915678345814875 -3.0360317351311243 3.113104588322916 -3.172129802277811 3.002273271587576 -3.267648897622084 C 2.891537061817398 -3.3633265045749603 2.747228093345068 -3.4202321720635003 2.5930280004958988 -3.4202321720635003 C 2.5643056970170033 -3.4202321720635003 2.535266370320902 -3.418266628116821 2.5061953413030795 -3.4142087309365796 C 2.3499662998637905 -3.3925877475231068 2.2138365303953833 -3.314124501264535 2.11831743505111 -3.203293184529195 C 2.022608125776513 -3.0925569747590167 1.965734160609694 -2.948279708608407 1.9657024582879734 -2.7940796157592382 C 1.9657024582879734 -2.765325609958622 1.9676997045563733 -2.7363179855842414 1.9717258994148938 -2.707246956566419 C 1.9933468828283671 -2.5510179151271295 2.0718101290869386 -2.414888145658723 2.1826414458222785 -2.3193690503144495 C 2.2933776555924563 -2.2236597410398526 2.4376549217430665 -2.1667540735513127 2.591855014592235 -2.1667540735513127 C 2.6205773180711303 -2.1667540735513127 2.649584942445512 -2.1687196174979926 2.6786876737850545 -2.1727775146782333 L 2.6786876737850545 -2.1727775146782333 C 2.7217077243599563 -2.1787375511617126 2.762984147240223 -2.1893578289381255 2.802516942425855 -2.2034336597820876 C 2.834663096650579 -2.1634570320923667 2.857805791506643 -2.114540349677427 2.8756541986353605 -2.0684768762173444 C 2.9754531074119193 -1.7529753704535849 2.890427480557176 -1.3930589119592152 2.7937671016309595 -1.0822176474883896 L 2.7277628678085977 -0.8914647776953286 Z M 2.632877818898737 -2.502449958251117 L 2.632877818898737 -2.502449958251117 C 2.6189922019850993 -2.500516116626158 2.605328501323505 -2.49959674929626 2.591855014592235 -2.49959674929626 C 2.5199541489298354 -2.49959674929626 2.452618417595206 -2.5260364856112694 2.400214479790997 -2.571243996384895 C 2.347905648951949 -2.616641721088844 2.311765002190425 -2.679000187913333 2.3013983429877776 -2.753056811452737 C 2.2994645013628188 -2.7669741306880953 2.29854513403292 -2.780637831349689 2.29854513403292 -2.7940796157592382 C 2.29854513403292 -2.8659804814216385 2.32498487034793 -2.9333162127562673 2.3701923811215555 -2.985720150560477 C 2.415590105825505 -3.038028981399525 2.477948572649994 -3.074169628161049 2.552005196189397 -3.0845362873636963 C 2.5658908131030356 -3.086470128988655 2.57958621608635 -3.0873894963185537 2.593028000495899 -3.0873894963185537 C 2.6649288661582995 -3.0873894963185537 2.732264597492928 -3.060949760003544 2.784668535297138 -3.0157422492299184 C 2.836977366136186 -2.970344524525969 2.87311801289771 -2.90798605770148 2.883484672100357 -2.8339294341620764 C 2.885418513725316 -2.8200438172484388 2.8863378810552143 -2.806380116586845 2.8863378810552143 -2.792906629855575 C 2.8863378810552143 -2.721005764193175 2.8598981447402045 -2.653670032858546 2.814690633966579 -2.6012660950543363 C 2.76932461158435 -2.5489572642152885 2.7069344424381407 -2.5128166174537645 2.632877818898737 -2.502449958251117 Z" fill="#03c1ed" transform="matrix(1,0,0,1,0,0)" fill-rule="nonzero"></path></g><g clip-path="url(#SvgjsClipPath1000253399a6-4cff-4ad0-aafd-3a04900d90a3)"><path d=" M 4.429194772233358 -2.498804191253244 C 4.386016210049853 -2.586841538671447 4.321311771418037 -2.6665411754771235 4.237649344397281 -2.7287411306930096 C 4.123933116385363 -2.813418032008826 3.9896737838984735 -2.8547895618542545 3.8577604232189113 -2.854662752567372 C 3.760561104823444 -2.854662752567372 3.664154344470994 -2.8325345320063686 3.5760852947310697 -2.7892925651794225 C 3.4880479473128663 -2.7461140029959177 3.408316608185469 -2.6814095643641016 3.3461483552913043 -2.5977471373433456 C 3.261471453975488 -2.484030909331428 3.2200999241300594 -2.349771576844539 3.2202267334169417 -2.2178582161649762 C 3.2202267334169417 -2.1206588977695096 3.242354953977945 -2.0242521374170583 3.285596920804891 -1.9361830876771342 C 3.3287754829883953 -1.848145740258931 3.3934799216202114 -1.7684144011315341 3.477142348640968 -1.7062461482373688 C 3.4924228677103137 -1.6948650147396607 3.5081472192837486 -1.6844032485718512 3.5241251894309484 -1.6745755288384545 C 3.4918839282410623 -1.506965353901457 3.3638382508114186 -1.3379919791304724 3.2492977624347636 -1.2278264111512658 C 3.1045132591366236 -1.0820591358797862 2.919054677070909 -0.9607977552983571 2.741585080078794 -0.8564971168374682 L 2.9161697657943315 -0.9139417237952592 C 3.247680944027011 -1.036756518140999 3.58156979638874 -1.211150989926212 3.7643970857516416 -1.5322321043128033 C 3.77333714047686 -1.549192846433343 3.781706553411108 -1.5666291233796923 3.789758943128149 -1.584287316578086 C 3.8121724845846376 -1.5819096424490382 3.834617728362848 -1.580292824041286 3.8569995674976165 -1.580292824041286 C 3.954198885893083 -1.580292824041286 4.0506056462455335 -1.602421044602289 4.138674695985458 -1.6456630114292352 C 4.226712043403661 -1.6888415736127402 4.306443382531058 -1.7535460122445563 4.368611635425223 -1.837208439265312 C 4.45328853674104 -1.9509246672772298 4.494660066586468 -2.085183999764119 4.494533257299586 -2.217097360443681 C 4.494564959621307 -2.314328381160869 4.472468441382024 -2.41073514151332 4.429194772233358 -2.498804191253244 Z M 4.101582979572316 -2.0358868894885314 C 4.07137066697255 -1.9953396200078393 4.033930225020481 -1.9651273074080742 3.99195635106236 -1.94445739364622 C 3.95001417942596 -1.9238508845278073 3.903601980426951 -1.9131672021079533 3.8570312698193376 -1.9131672021079533 C 3.7935949240563467 -1.913294011394836 3.73082432704949 -1.93247391603582 3.6757890965424673 -1.9733382087337188 L 3.6757890965424673 -1.9733382087337188 C 3.635241827061775 -2.0035505213334837 3.6049978121402892 -2.040990963285554 3.5843278983784357 -2.0829648372436744 C 3.5637213892600226 -2.1249070088800748 3.553037706840169 -2.171319207879084 3.553037706840169 -2.217889918486697 C 3.5531645161270515 -2.281326264249688 3.5723444207680353 -2.3440651589348245 3.613208713465934 -2.3991320917635672 C 3.6434210260656994 -2.4396793612442598 3.680861468017769 -2.4699233761657453 3.7228353419758897 -2.4905932899275998 C 3.7647775136122896 -2.511199799046012 3.8111897126112995 -2.521883481465866 3.857760423218912 -2.521883481465866 C 3.9211650666601825 -2.5217566721789835 3.9839356636670393 -2.5025767675379997 4.0390025964957825 -2.461712474840101 C 4.079549865976475 -2.431500162240336 4.10976217857624 -2.394059720288266 4.130463794659814 -2.3520858463301453 C 4.151070303778227 -2.3101436746937454 4.1617539861980815 -2.2637314756947355 4.1617539861980815 -2.2171607650871223 C 4.161627176911199 -2.153724419324132 4.142447272270214 -2.0909538223172746 4.101582979572316 -2.0358868894885314 Z" fill="#0991ce" transform="matrix(1,0,0,1,0,0)" fill-rule="nonzero"></path></g><g clip-path="url(#SvgjsClipPath1000253399a6-4cff-4ad0-aafd-3a04900d90a3)"><path d=" M 5.764750181680269 -1.0025497130044334 C 5.764750181680269 -0.586868870603467 5.427849608755082 -0.25 5.011820040815188 -0.25 C 4.999234219092096 -0.25 4.987028825229652 -0.2511095812602222 4.974474705828281 -0.2518387346597968 L 4.9737455524287055 -0.25 L 1.2012960769600223 -0.25 C 1.263781353071394 -0.2851261724664633 1.3225891598631716 -0.32729026035490794 1.3765782137534133 -0.37684098920426035 C 1.5500216158870075 -0.5358598349549655 1.6561609890076936 -0.7525769062372265 1.6753725959703982 -0.9873960032219697 C 1.6775917584908429 -1.0129163722070813 1.6783209118904172 -1.0387854667311194 1.6783209118904172 -1.0643058357162305 C 1.6783209118904172 -1.0827882892793608 1.6779404840297696 -1.1016511707031387 1.6768309027695472 -1.1205140521269166 C 1.7726036166875858 -1.1889276624000469 1.871736776708011 -1.2255438439873805 1.9619615843249383 -1.2255438439873805 C 1.9837727816687352 -1.2255438439873805 2.0059644068731797 -1.2233246814669356 2.024098134897383 -1.2196155098256214 C 2.191993630729866 -1.181889746978066 2.338426654757479 -1.0413533547904912 2.49820635622948 -0.7640214443783759 C 2.532222947435721 -0.7052136375865978 2.5943594980081657 -0.6715774742410043 2.658334783240407 -0.6715774742410043 L 2.741553377757074 -0.6715774742410043 C 2.7607966870414997 -0.6715774742410043 2.780388721864852 -0.6745257901610229 2.7996003288275566 -0.6808345521834291 L 2.974153312221373 -0.7381523498543374 L 2.9804303719220586 -0.7407519402354299 C 3.2662902068770245 -0.8465108854954679 3.666785637173806 -1.0284505098501926 3.8986564182385313 -1.3964193580616033 C 4.00996326979968 -1.402347692223362 4.120160540100607 -1.430816377128492 4.220022853520607 -1.4796379525782701 C 4.234447409903496 -1.4866758680002512 4.248871966286385 -1.4944429368218064 4.262916094808626 -1.5025587311822892 C 4.276231069931294 -1.5099453721431975 4.289546045053961 -1.5180928688254003 4.3024805923159795 -1.5265890910465307 C 4.313956832778849 -1.5336270064685118 4.325052645381071 -1.5413940752900672 4.336148457983294 -1.5495098696505498 C 4.34242551768398 -1.553567766830791 4.348353851845737 -1.5583865197323277 4.354282186007497 -1.5628248447732167 C 4.373525495291922 -1.5772494011561053 4.392007948855053 -1.5927835387992169 4.409761249018608 -1.6090468298419027 C 4.415689583180367 -1.6142143082823661 4.421586215020405 -1.6197622145834774 4.427134121321516 -1.6253101208845884 C 4.460041131267535 -1.6563783961708107 4.489999825293535 -1.6903949873770518 4.517010203399516 -1.7270111689643857 C 4.62203999525998 -1.8678962866908877 4.679738220791535 -2.042100544545777 4.679357792930888 -2.217382681339168 C 4.679357792930888 -2.2580567601067427 4.676409477010869 -2.2987308388743175 4.669751989449536 -2.3386757642423177 C 4.707477752297091 -2.349042423444965 4.747422677665091 -2.354590329746076 4.78882590983224 -2.354590329746076 C 4.999614646952742 -2.354590329746076 5.176767220727651 -2.211105621638482 5.227776256376153 -2.016580175560666 C 5.237762487718153 -1.9795835661126848 5.242929966158616 -1.9403994964659796 5.242929966158616 -1.9004545710979797 C 5.242929966158616 -1.8394276017857574 5.2303441444355245 -1.7817293762542017 5.208532947091728 -1.7285011780852557 C 5.528789801113583 -1.6419538397879212 5.764750181680269 -1.3501973729929166 5.764750181680269 -1.0025497130044334 Z" fill="#0874b7" transform="matrix(1,0,0,1,0,0)" fill-rule="nonzero"></path></g></g><g><path d=" M 0.933 0.5369999999999999 L 1.0065 0.5369999999999999 L 1.0065 0.9299999999999999 Q 0.9375 0.9959999999999999 0.83925 1.0305 Q 0.741 1.065 0.6315000000000001 1.065 Q 0.47550000000000003 1.065 0.35025 0.9959999999999999 Q 0.225 0.9269999999999998 0.15375 0.8054999999999999 Q 0.0825 0.6839999999999999 0.0825 0.5324999999999999 Q 0.0825 0.3809999999999999 0.15375 0.25949999999999984 Q 0.225 0.1379999999999999 0.35025 0.06899999999999984 Q 0.47550000000000003 -2.220446049250313e-16 0.633 -2.220446049250313e-16 Q 0.7485 -2.220446049250313e-16 0.8452500000000001 0.03674999999999984 Q 0.9420000000000001 0.0734999999999999 1.0110000000000001 0.1439999999999999 L 0.963 0.19499999999999984 Q 0.897 0.1289999999999999 0.81525 0.0997499999999999 Q 0.7335 0.0704999999999999 0.6345000000000001 0.0704999999999999 Q 0.4995 0.0704999999999999 0.39075 0.13049999999999984 Q 0.28200000000000003 0.1904999999999999 0.2205 0.2962499999999999 Q 0.159 0.4019999999999999 0.159 0.5324999999999999 Q 0.159 0.6614999999999999 0.22125 0.7672499999999999 Q 0.28350000000000003 0.8729999999999999 0.3915 0.9337499999999999 Q 0.4995 0.9944999999999999 0.6345000000000001 0.9944999999999999 Q 0.8145 0.9944999999999999 0.933 0.8984999999999999 L 0.933 0.5369999999999999 M 2.0715153808593754 1.0574999999999999 L 1.8210153808593752 0.7064999999999999 Q 1.7655153808593753 0.7139999999999999 1.7190153808593753 0.7139999999999999 L 1.4190153808593753 0.7139999999999999 L 1.4190153808593753 1.0574999999999999 L 1.3425153808593753 1.0574999999999999 L 1.3425153808593753 0.00749999999999984 L 1.7190153808593753 0.00749999999999984 Q 1.9170153808593753 0.00749999999999984 2.029515380859375 0.10124999999999984 Q 2.1420153808593754 0.19499999999999984 2.1420153808593754 0.3614999999999998 Q 2.1420153808593754 0.4859999999999999 2.078265380859375 0.5707499999999999 Q 2.0145153808593754 0.6554999999999999 1.8960153808593754 0.69 L 2.158515380859375 1.0574999999999999 L 2.0715153808593754 1.0574999999999999 M 1.7190153808593753 0.6464999999999999 Q 1.8870153808593753 0.6464999999999999 1.9755153808593753 0.5722499999999999 Q 2.064015380859375 0.4979999999999999 2.064015380859375 0.3614999999999998 Q 2.064015380859375 0.22499999999999987 1.9755153808593753 0.15074999999999983 Q 1.8870153808593753 0.0764999999999999 1.7190153808593753 0.0764999999999999 L 1.4190153808593753 0.0764999999999999 L 1.4190153808593753 0.6464999999999999 L 1.7190153808593753 0.6464999999999999 M 3.071971435546875 0.7619999999999999 L 2.462971435546875 0.7619999999999999 L 2.329471435546875 1.0574999999999999 L 2.246971435546875 1.0574999999999999 L 2.729971435546875 0.00749999999999984 L 2.806471435546875 0.00749999999999984 L 3.289471435546875 1.0574999999999999 L 3.2069714355468752 1.0574999999999999 L 3.071971435546875 0.7619999999999999 M 3.0434714355468753 0.6974999999999999 L 2.767471435546875 0.09149999999999991 L 2.492971435546875 0.6974999999999999 L 3.0434714355468753 0.6974999999999999 M 4.1669970703125 0.10124999999999984 Q 4.2794970703125 0.19499999999999984 4.2794970703125 0.3614999999999998 Q 4.2794970703125 0.5264999999999999 4.1669970703125 0.6202499999999999 Q 4.0544970703125 0.7139999999999999 3.8564970703125 0.7139999999999999 L 3.5564970703125 0.7139999999999999 L 3.5564970703125 1.0574999999999999 L 3.4799970703125 1.0574999999999999 L 3.4799970703125 0.00749999999999984 L 3.8564970703125 0.00749999999999984 Q 4.0544970703125 0.00749999999999984 4.1669970703125 0.10124999999999984 M 4.1129970703125 0.5714999999999999 Q 4.2014970703125 0.4979999999999999 4.2014970703125 0.3614999999999998 Q 4.2014970703125 0.22499999999999987 4.1129970703125 0.15074999999999983 Q 4.0244970703125 0.0764999999999999 3.8564970703125 0.0764999999999999 L 3.5564970703125 0.0764999999999999 L 3.5564970703125 0.6449999999999998 L 3.8564970703125 0.6449999999999998 Q 4.0244970703125 0.6449999999999998 4.1129970703125 0.5714999999999999 M 5.392522705078125 0.00749999999999984 L 5.392522705078125 1.0574999999999999 L 5.316022705078125 1.0574999999999999 L 5.316022705078125 0.5579999999999998 L 4.614022705078125 0.5579999999999998 L 4.614022705078125 1.0574999999999999 L 4.537522705078125 1.0574999999999999 L 4.537522705078125 0.00749999999999984 L 4.614022705078125 0.00749999999999984 L 4.614022705078125 0.4904999999999998 L 5.316022705078125 0.4904999999999998 L 5.316022705078125 0.00749999999999984 L 5.392522705078125 0.00749999999999984 M 5.7585615234375 0.00749999999999984 L 5.8350615234375 0.00749999999999984 L 5.8350615234375 1.0574999999999999 L 5.7585615234375 1.0574999999999999 L 5.7585615234375 0.00749999999999984 M 7.239035888671875 1.1384999999999998 Q 7.192535888671875 1.1969999999999998 7.1295358886718745 1.2269999999999999 Q 7.066535888671875 1.257 6.991535888671875 1.257 Q 6.904535888671875 1.257 6.822785888671875 1.212 Q 6.741035888671875 1.1669999999999998 6.643535888671875 1.065 Q 6.489035888671875 1.065 6.365285888671875 0.9952499999999999 Q 6.241535888671875 0.9254999999999999 6.171035888671875 0.8039999999999998 Q 6.100535888671875 0.6824999999999999 6.100535888671875 0.5324999999999999 Q 6.100535888671875 0.38249999999999984 6.171785888671875 0.2609999999999999 Q 6.243035888671875 0.13949999999999985 6.367535888671875 0.06974999999999987 Q 6.492035888671875 -2.220446049250313e-16 6.646535888671875 -2.220446049250313e-16 Q 6.801035888671875 -2.220446049250313e-16 6.925535888671875 0.06899999999999984 Q 7.050035888671875 0.1379999999999999 7.121285888671875 0.25949999999999984 Q 7.192535888671875 0.3809999999999999 7.192535888671875 0.5324999999999999 Q 7.192535888671875 0.6674999999999999 7.134785888671875 0.7792499999999999 Q 7.077035888671875 0.8909999999999999 6.975035888671875 0.9637499999999999 Q 6.873035888671875 1.0365 6.742535888671875 1.0574999999999999 Q 6.871535888671875 1.1925 6.991535888671875 1.1925 Q 7.113035888671875 1.1925 7.198535888671875 1.0919999999999999 L 7.239035888671875 1.1384999999999998 M 6.238535888671875 0.7672499999999999 Q 6.300035888671875 0.8729999999999999 6.407285888671875 0.9337499999999999 Q 6.514535888671875 0.9944999999999999 6.646535888671875 0.9944999999999999 Q 6.778535888671875 0.9944999999999999 6.885035888671875 0.9337499999999999 Q 6.991535888671875 0.8729999999999999 7.053035888671875 0.7672499999999999 Q 7.114535888671875 0.6614999999999999 7.114535888671875 0.5324999999999999 Q 7.114535888671875 0.40349999999999986 7.053035888671875 0.29774999999999985 Q 6.991535888671875 0.19199999999999984 6.885035888671875 0.13124999999999987 Q 6.778535888671875 0.0704999999999999 6.646535888671875 0.0704999999999999 Q 6.514535888671875 0.0704999999999999 6.407285888671875 0.13124999999999987 Q 6.300035888671875 0.19199999999999984 6.238535888671875 0.29774999999999985 Q 6.177035888671875 0.40349999999999986 6.177035888671875 0.5324999999999999 Q 6.177035888671875 0.6614999999999999 6.238535888671875 0.7672499999999999 M 7.458054931640625 0.00749999999999984 L 7.534554931640625 0.00749999999999984 L 7.534554931640625 0.9884999999999999 L 8.139054931640626 0.9884999999999999 L 8.139054931640626 1.0574999999999999 L 7.458054931640625 1.0574999999999999 L 7.458054931640625 0.00749999999999984" fill="#0874b7" fill-rule="nonzero"></path></g><g></g></g><defs><clipPath id="SvgjsClipPath1002"><path d=" M 0 -3.4202321720635003 h 5.764750181680269 v 3.1702321720635003 h -5.764750181680269 Z"></path></clipPath><clipPath id="SvgjsClipPath1000253399a6-4cff-4ad0-aafd-3a04900d90a3"><path d=" M 0 -3.4202321720635003 L 5.764750181680269 -3.4202321720635003 L 5.764750181680269 -0.25 L 0 -0.25 Z"></path></clipPath></defs></svg>